<?xml version="1.0" encoding="UTF-8"?>
<svg width="92px" height="73px" viewBox="0 0 92 73" version="1.1" xmlns="http://www.w3.org/2000/svg" xmlns:xlink="http://www.w3.org/1999/xlink">
    <!-- Generator: Sketch 54.1 (76490) - https://sketchapp.com -->
    <title>Group</title>
    <desc>Created with Sketch.</desc>
    <g id="Symbols" stroke="none" stroke-width="1" fill="none" fill-rule="evenodd">
        <g id="reg2-copy-3" transform="translate(-49.000000, -58.000000)">
            <g id="wallet" transform="translate(49.000000, 38.000000)">
                <g id="Group" transform="translate(0.000000, 20.000000)">
                    <path d="M88,18 L72,18 C65.372583,18 60,23.372583 60,30 L60,41 C60,47.627417 65.372583,53 72,53 L88,53 L88,65 C88,69.418278 84.418278,73 80,73 L8,73 C3.581722,73 5.41083001e-16,69.418278 0,65 L0,8 C-5.41083001e-16,3.581722 3.581722,8.11624501e-16 8,0 L80,0 C84.418278,-8.11624501e-16 88,3.581722 88,8 L88,18 Z" id="Combined-Shape" fill="#D8D8D8"></path>
                    <path d="M74,24 L90,24 C91.1045695,24 92,24.8954305 92,26 L92,46 C92,47.1045695 91.1045695,48 90,48 L74,48 C69.581722,48 66,44.418278 66,40 L66,32 C66,27.581722 69.581722,24 74,24 Z M76,40 C78.209139,40 80,38.209139 80,36 C80,33.790861 78.209139,32 76,32 C73.790861,32 72,33.790861 72,36 C72,38.209139 73.790861,40 76,40 Z" id="Combined-Shape" fill="#C4C4C4"></path>
                    <path d="M77,6 L79,6 C80.6568542,6 82,7.34314575 82,9 L82,11 C82,11.5522847 81.5522847,12 81,12 C80.4477153,12 80,11.5522847 80,11 L80,10 C80,8.8954305 79.1045695,8 78,8 L77,8 C76.4477153,8 76,7.55228475 76,7 C76,6.44771525 76.4477153,6 77,6 Z M13,6 C13.5522847,6 14,6.44771525 14,7 C14,7.55228475 13.5522847,8 13,8 L7,8 C6.44771525,8 6,7.55228475 6,7 C6,6.44771525 6.44771525,6 7,6 L13,6 Z M25,6 C25.5522847,6 26,6.44771525 26,7 C26,7.55228475 25.5522847,8 25,8 L19,8 C18.4477153,8 18,7.55228475 18,7 C18,6.44771525 18.4477153,6 19,6 L25,6 Z M37,6 C37.5522847,6 38,6.44771525 38,7 C38,7.55228475 37.5522847,8 37,8 L31,8 C30.4477153,8 30,7.55228475 30,7 C30,6.44771525 30.4477153,6 31,6 L37,6 Z M49,6 C49.5522847,6 50,6.44771525 50,7 C50,7.55228475 49.5522847,8 49,8 L43,8 C42.4477153,8 42,7.55228475 42,7 C42,6.44771525 42.4477153,6 43,6 L49,6 Z M61,6 C61.5522847,6 62,6.44771525 62,7 C62,7.55228475 61.5522847,8 61,8 L55,8 C54.4477153,8 54,7.55228475 54,7 C54,6.44771525 54.4477153,6 55,6 L61,6 Z M71,6 C71.5522847,6 72,6.44771525 72,7 C72,7.55228475 71.5522847,8 71,8 L67,8 C66.4477153,8 66,7.55228475 66,7 C66,6.44771525 66.4477153,6 67,6 L71,6 Z M77,67 C76.4477153,67 76,66.5522847 76,66 C76,65.4477153 76.4477153,65 77,65 L78,65 C79.1045695,65 80,64.1045695 80,63 L80,62 C80,61.4477153 80.4477153,61 81,61 C81.5522847,61 82,61.4477153 82,62 L82,64 C82,65.6568542 80.6568542,67 79,67 L77,67 Z M13,67 L7,67 C6.44771525,67 6,66.5522847 6,66 C6,65.4477153 6.44771525,65 7,65 L13,65 C13.5522847,65 14,65.4477153 14,66 C14,66.5522847 13.5522847,67 13,67 Z M25,67 L19,67 C18.4477153,67 18,66.5522847 18,66 C18,65.4477153 18.4477153,65 19,65 L25,65 C25.5522847,65 26,65.4477153 26,66 C26,66.5522847 25.5522847,67 25,67 Z M37,67 L31,67 C30.4477153,67 30,66.5522847 30,66 C30,65.4477153 30.4477153,65 31,65 L37,65 C37.5522847,65 38,65.4477153 38,66 C38,66.5522847 37.5522847,67 37,67 Z M49,67 L43,67 C42.4477153,67 42,66.5522847 42,66 C42,65.4477153 42.4477153,65 43,65 L49,65 C49.5522847,65 50,65.4477153 50,66 C50,66.5522847 49.5522847,67 49,67 Z M61,67 L55,67 C54.4477153,67 54,66.5522847 54,66 C54,65.4477153 54.4477153,65 55,65 L61,65 C61.5522847,65 62,65.4477153 62,66 C62,66.5522847 61.5522847,67 61,67 Z M71,67 L67,67 C66.4477153,67 66,66.5522847 66,66 C66,65.4477153 66.4477153,65 67,65 L71,65 C71.5522847,65 72,65.4477153 72,66 C72,66.5522847 71.5522847,67 71,67 Z" id="Combined-Shape" fill="#C4C4C4"></path>
                </g>
            </g>
        </g>
    </g>
</svg>