<?xml version="1.0" encoding="UTF-8"?>
<svg width="28px" height="28px" viewBox="0 0 28 28" version="1.1" xmlns="http://www.w3.org/2000/svg" xmlns:xlink="http://www.w3.org/1999/xlink">
    <!-- Generator: Sketch 54.1 (76490) - https://sketchapp.com -->
    <title>dollar-coin-money</title>
    <desc>Created with Sketch.</desc>
    <g id="Symbols" stroke="none" stroke-width="1" fill="none" fill-rule="evenodd">
        <g id="reg2-copy-2" transform="translate(-110.000000, -42.000000)">
            <g id="Group-2" transform="translate(40.000000, 40.000000)">
                <g id="dollar-coin-money" transform="translate(70.000000, 2.000000)">
                    <path d="M14,0 C6.26855469,0 0,6.26855469 0,14 C0,21.7314453 6.26855469,28 14,28 C21.7331406,28 28,21.7314453 28,14 C28,6.26855469 21.7331406,0 14,0 Z" id="Shape" fill="#D4A077"></path>
                    <path d="M17.6885426,19.9458663 C16.9983084,20.7614554 16.0015959,21.2414549 14.6981857,21.385807 L14.6981857,23.4770642 L13.0368337,23.4770642 L13.0368337,21.3966045 C10.8634239,21.1620613 9.51890874,19.8303846 9,17.40527 L11.5690586,16.6997348 C11.8071384,18.224439 12.5949831,18.9859251 13.9325926,18.9859251 C14.5577165,18.9859251 15.0201744,18.8235579 15.3147598,18.496918 C15.6093452,18.1702782 15.7566105,17.7769476 15.7566105,17.315021 C15.7566105,16.8368693 15.6092904,16.4741414 15.3147598,16.2287429 C15.0201744,15.9816122 14.3641944,15.6693498 13.3485736,15.2904545 C12.4357151,14.9567125 11.7214757,14.6282249 11.207664,14.2999106 C10.6938523,13.9751185 10.2759521,13.5186195 9.9556624,12.9321459 C9.63537273,12.3438824 9.47440579,11.6582101 9.47440579,10.8787089 C9.47440579,9.85559925 9.76214036,8.93353601 10.3342115,8.11436692 C10.9062826,7.29698779 11.8071384,6.79712546 13.0368886,6.61489541 L13.0368886,5 L14.6982405,5 L14.6982405,6.61495315 C16.5548136,6.84955413 17.7571604,7.95563739 18.3034724,9.93505063 L16.0152976,10.9238623 C15.5682951,9.56695287 14.8797051,8.88849817 13.94465,8.88849817 C13.4753412,8.88849817 13.098546,9.04006783 12.8159632,9.34320717 C12.5316267,9.6463465 12.3895132,10.0144443 12.3895132,10.4457105 C12.3895132,10.8859843 12.5265296,11.2234217 12.8005626,11.4598126 C13.0728965,11.6944136 13.6603683,11.9849077 14.5578261,12.3331426 C15.5443446,12.7120956 16.3184876,13.0711281 16.8785561,13.4085655 C17.4403235,13.7460029 17.887326,14.2133571 18.2230164,14.8069905 C18.5570077,15.4024717 18.7247706,16.0972093 18.7247706,16.8929356 C18.7247706,18.114385 18.3787767,19.1320671 17.6885426,19.9458663 Z" id="Path" fill="#F8F8F8"></path>
                </g>
            </g>
        </g>
    </g>
</svg>