<?xml version="1.0" encoding="UTF-8"?>
<svg width="32px" height="32px" viewBox="0 0 32 32" version="1.1" xmlns="http://www.w3.org/2000/svg" xmlns:xlink="http://www.w3.org/1999/xlink">
    <!-- Generator: Sketch 54.1 (76490) - https://sketchapp.com -->
    <title>Shape</title>
    <desc>Created with Sketch.</desc>
    <g id="Symbols" stroke="none" stroke-width="1" fill="none" fill-rule="evenodd">
        <g id="reg2-copy-2" transform="translate(-74.000000, -74.000000)" fill="#A0A0A0">
            <g id="Group-2" transform="translate(40.000000, 40.000000)">
                <path d="M49.9994353,34 C41.1781189,34 34,41.1772429 34,50 C34,58.8227571 41.1781189,66 49.9994353,66 C58.8218811,66 66,58.8238865 66,50 C66,41.1772429 58.8218811,34 49.9994353,34 Z M46.4250038,40.6983609 L47.075718,40.9118002 L47.075718,39.9229405 L47.3293196,39.6470588 L47.6006143,40.2555879 L48.1176471,40.9765132 L47.9082783,41.3080253 L47.0747351,41.5294118 L47.0747351,40.943589 L46.4240209,41.5294118 L46.2352941,41.195629 L46.4250038,40.6983609 Z M35.8823529,50 C35.9272901,46.8339214 36.5557296,43.9160947 37.5933696,41.5294118 C37.6280938,41.5374944 37.652605,41.552505 37.652605,41.552505 C37.652605,41.7776637 37.4714946,41.8319328 37.652605,42.3977163 C37.8840994,43.129771 37.6852865,43.4680865 37.6852865,43.4680865 C37.6852865,43.4680865 37.1201676,44.1435628 37.0207612,44.2567195 C36.9213547,44.3687215 36.6558169,44.9876195 36.8212674,44.8190391 C36.9873987,44.6504587 37.1862116,44.4818782 37.0207612,44.9321958 C36.8546298,45.383668 36.5557296,46.114568 36.4896856,46.3974597 C36.4236415,46.6803515 36.0913789,47.3546732 36.0913789,47.6929886 C36.0913789,48.0313041 35.95861,48.7067804 35.9919724,48.9896722 C36.014441,49.1848098 35.9402266,49.76214 35.8823529,50 Z M41.2068365,59.4267164 L40.9466523,60.2597347 L41.2068365,60.9293488 C41.2068365,60.9293488 40.8165602,61.2081643 40.5603584,61.2081643 C40.3214138,61.2081643 40.2404381,61.3372878 39.9789264,61.2790108 C37.5098316,59.2930221 35.7177466,56.6956962 34.9411765,53.7647059 C35.0248071,53.7841315 35.1442794,53.8355524 35.3128682,53.9635333 C35.5571227,54.1463631 35.701817,54.2400634 36.0257197,54.3531893 C36.348295,54.4674579 36.4783871,54.6308621 36.8673359,54.798837 C37.2562847,54.9668118 37.1275201,54.8559713 37.6439061,55.3576106 C38.162947,55.8581071 38.0979009,55.8581071 38.2266656,56.1369226 C38.3554302,56.415738 38.5505683,56.6945535 38.6806604,56.8625284 C38.8107525,57.0305033 39.1983738,57.1413438 39.3921845,57.2533271 C39.5859952,57.3653103 39.909898,57.4761509 40.1037086,57.4761509 C40.2988468,57.4761509 40.8816062,57.9777902 41.205509,58.0314964 C41.5294118,58.0897734 41.5294118,58.6474043 41.5294118,58.6474043 L41.2068365,59.4267164 Z M44.1173774,36.9037505 C43.5483055,37.5508883 43.6793536,37.3661271 43.5483055,37.5508883 C43.4172574,37.7356494 43.4603417,37.7811291 43.153366,38.0132649 C42.8472879,38.2425582 42.7162398,38.5201737 42.7162398,38.5201737 L42.2342341,38.7058824 L41.8410897,38.5201737 C41.8410897,38.5201737 41.4892345,38.6594552 41.5332164,38.4737465 C41.5457827,38.4254244 41.5637345,38.3742598 41.584379,38.3202527 C42.6561013,37.2761153 43.9100342,36.4461113 45.2941176,35.8823529 C45.157684,36.0680616 44.9925275,36.2566127 44.9925275,36.2566127 C44.9925275,36.2566127 44.6864494,36.2556652 44.1173774,36.9037505 Z M59.2820065,56.6816653 C59.2171273,56.8675862 59.0962741,57.1970419 59.0339392,57.3848895 C58.9716044,57.572737 58.6612023,57.9493954 58.4767421,58.0428375 C58.2910097,58.1382063 57.9780633,58.4204593 57.7936031,58.4666987 C57.6091428,58.5129381 57.483201,58.1353163 57.5455358,57.9493954 C57.610415,57.7596212 57.9182727,57.2442446 57.9182727,57.2442446 C57.9182727,57.2442446 57.9806076,56.9639183 58.0429424,56.7741441 C58.1078216,56.5891865 58.8507511,56.3522096 58.8507511,56.3522096 L59.3494299,55.6470588 C59.3494299,55.6470588 59.4117647,55.836833 59.4117647,55.9774778 C59.4066761,56.116196 59.3443413,56.4938178 59.2820065,56.6816653 Z M59.2003615,52.424925 C59.0962376,52.5937901 58.7880728,53.0437115 58.635568,53.2692505 C58.4830632,53.4947895 58.2779706,53.8336764 57.9698058,54.1158893 C57.661641,54.3969456 57.6595375,54.6768453 57.5091362,54.9070108 C57.3555797,55.1325498 57.1483836,55.6391452 57.1483836,55.6391452 C57.1483836,55.6391452 57.2525075,56.7691535 57.3019401,56.9946925 C57.3555797,57.2202316 56.9443427,57.8390181 56.9443427,57.8390181 L56.4826214,58.3456134 L55.8641882,59.2489261 L55.9136208,60.0920951 C55.9136208,60.0920951 55.4476924,60.4876558 55.190012,60.7131949 C54.9354868,60.9387339 54.9744018,61.1087556 54.7703609,61.3342946 C54.5684236,61.5575204 54.0225616,61.9530812 53.817469,62.0109117 C53.6134282,62.0687422 52.7425733,62.2352941 52.7425733,62.2352941 L52.7425733,61.7286988 L52.4575472,61.1642729 C52.4575472,61.1642729 52.172521,60.4888125 52.0179127,60.2609602 C51.8643562,60.0377344 51.8643562,59.6965344 51.6087792,59.4166346 C51.3521505,59.1344217 51.2269914,58.9100393 51.1754554,58.738861 C51.1228675,58.5699959 51.2133186,58.0634005 51.2133186,58.0634005 C51.2133186,58.0634005 51.4110489,57.4423007 51.5130694,57.2179183 C51.6171933,56.9923793 51.5109658,56.6534925 51.4057901,56.4256402 C51.302718,56.2001012 51.2522336,55.6345187 51.2522336,55.4679668 C51.2522336,55.2991017 50.8378413,55.013419 50.6853366,54.8468671 C50.53178,54.6768453 50.5822644,54.4513063 50.5822644,54.2257673 C50.5822644,54.0013849 50.4287079,53.4913197 50.4781404,53.0980722 C50.5296765,52.7025114 50.0174709,52.9824112 49.7103578,53.0980722 C49.402193,53.2091068 49.1981521,52.9824112 49.1981521,52.6435243 C49.1981521,52.3069507 48.6344103,52.5891636 48.2747094,52.8123894 C47.9139568,53.0367718 47.5048233,53.0367718 47.0925345,53.205637 C46.683401,53.3745021 46.4793602,53.0367718 46.4793602,53.0367718 C46.4793602,53.0367718 46.1186075,52.697885 45.8640823,52.5301765 C45.6064018,52.3613114 45.3497731,52.0235812 45.1436287,51.7402116 C44.9395879,51.4568421 44.4252787,50.6090467 44.3758461,50.2736297 C44.32431,49.9335862 44.3758461,49.7068906 44.3758461,49.3124864 C44.3758461,48.9180823 44.3758461,48.6925433 44.4263304,48.4103304 C44.4778665,48.1281174 44.6314231,47.7892306 44.7860314,47.5070177 C44.9395879,47.2248047 45.5043814,46.8870745 45.6568862,46.7737267 C45.8104427,46.6615355 46.1701436,46.3238052 46.1701436,46.0971096 C46.1701436,45.8715706 46.376288,45.7593794 46.4772567,45.5326838 C46.5813806,45.3071447 46.9400298,44.7438755 47.4017511,44.9694145 C47.4017511,44.9694145 47.8108846,44.9138972 47.9644411,44.8572233 C48.1179976,44.8005494 48.5281829,44.6328409 48.731172,44.5194931 C48.9362646,44.4061453 49.4474185,44.3529412 49.4474185,44.3529412 C49.4474185,44.3529412 49.8512932,44.5299026 50.0048498,44.5299026 C50.1584063,44.5299026 50.6600944,44.4315907 50.6600944,44.4315907 C50.6600944,44.4315907 50.8925327,45.2493142 50.8925327,45.4193359 C50.8925327,45.5893577 51.0460892,45.7570662 51.3048215,45.870414 C51.5582949,45.9826052 52.7394181,46.2648181 53.254779,45.8137401 C53.3725758,45.7096451 53.7648812,45.9826052 53.7648812,45.9826052 C53.7648812,45.9826052 55.0480248,46.2648181 55.2520656,46.4336832 C55.45821,46.603705 55.8168592,46.7170528 55.9199313,46.8870745 C56.0240553,47.0559396 56.3806009,47.5636916 56.4310853,47.7325567 C56.4847249,47.9014218 56.7413536,48.5236782 56.7928897,48.7480606 C56.8454775,48.9735996 56.9969305,49.5380255 57.1515388,49.8202384 C57.3050954,50.1036079 58.1791055,51.3423376 58.4851668,51.9079201 L59.4117647,51.739055 C59.4065059,51.7483079 59.3044855,52.2572164 59.2003615,52.424925 Z M64.7082791,49.2643075 C64.6506393,49.0438247 64.3059765,48.2755097 64.3059765,48.2755097 C64.3059765,48.2755097 63.9613137,47.836794 63.7319306,47.7265526 C63.5049001,47.6163112 63.3319806,47.3418327 62.9285016,47.1235997 C62.5261989,46.9031169 62.355632,46.7940005 62.0133219,46.7940005 C61.6663064,46.7940005 61.3239963,46.3541598 60.9205173,46.134802 C60.5182146,45.916569 60.4605748,46.0256855 60.4605748,46.0256855 C60.4605748,46.0256855 60.9205173,46.6837591 60.9205173,46.8479963 C60.9205173,47.0122334 61.435747,47.286712 61.955682,47.1764706 C61.955682,47.1764706 62.2979922,47.7805484 62.4709117,47.9447856 C62.6438313,48.1090227 62.4132719,48.2743848 62.0686091,48.4937427 C61.7239463,48.7119756 61.7839388,48.6579798 61.6074902,48.822217 C61.435747,48.9864542 60.8628774,49.2631826 60.6899579,49.3711741 C60.5182146,49.4802906 59.8312417,49.8098899 59.4889315,49.4802906 C59.3183646,49.321678 59.3712992,48.9875791 59.2595484,48.7670963 C59.1442687,48.5477385 57.9408897,46.8468713 57.3668439,46.0796813 C57.26568,45.9446918 57.0221811,45.5284743 56.8516141,45.4216077 C56.6798709,45.3102414 57.2550931,45.3102414 57.2550931,45.3102414 C57.2550931,45.3102414 57.2550931,44.9255214 57.1962769,44.6521678 C57.1386371,44.3776892 57.2550931,43.9940942 57.2550931,43.9940942 C57.2550931,43.9940942 56.6810472,44.3225685 56.5069513,44.4328099 C56.3352081,44.5430513 56.1622885,44.214577 55.9364344,43.9389735 C55.7070513,43.6656199 55.4753156,43.3348957 55.4200284,43.0604172 C55.3623885,42.7870635 55.7070513,42.6768221 55.7070513,42.6768221 L56.222281,42.4034685 C56.222281,42.4034685 56.8539668,42.294352 57.2586221,42.3483478 C57.6585721,42.4034685 58.2902578,42.4585892 58.2902578,42.4585892 C58.2902578,42.4585892 58.4620011,42.0738692 58.2302653,41.9096321 C58.0032349,41.7453949 57.4832999,41.4709163 57.2562694,41.526037 C57.0268863,41.5800328 57.3691965,41.2515585 57.6562194,41.0322006 L57.0198284,40.9219592 C57.0198284,40.9219592 56.4434299,41.1964378 56.2681577,41.2515585 C56.0964144,41.3055543 55.7999809,41.4157956 55.5670688,41.6902742 C55.3400384,41.9647528 55.6588221,42.3483478 55.429439,42.4585892 C55.2024085,42.5688306 55.0459575,42.6228263 54.8730379,42.6768221 C54.7012947,42.7319428 54.1566569,42.6768221 54.1566569,42.6768221 C53.5637898,42.6768221 53.942566,43.1942817 54.0966644,43.3776424 L53.6367219,42.8421842 L53.2967644,42.0727443 C53.2967644,42.0727443 52.8074138,41.74427 52.5803833,41.6351535 C52.3486476,41.526037 51.6428535,41.1413171 51.6428535,41.1413171 L51.6910827,41.6351535 L52.3545292,42.2786032 L52.4145217,42.2932271 L52.8215297,42.7319428 L52.1180882,42.7870635 L52.1180882,42.3539723 C50.9417646,42.1874854 51.5252211,42.0164987 51.4452311,41.9636278 C51.2746642,41.8545114 50.8453061,41.5789079 50.8453061,41.5789079 C50.8453061,41.5789079 50.1512752,41.6880244 49.979532,41.74427 C49.8066124,41.7993907 49.7525015,41.9636278 49.409015,42.0727443 C49.0631759,42.1829857 48.9031959,42.3472229 48.7890925,42.51146 C48.6749892,42.6756972 48.2997419,43.1695336 48.0727115,43.3888915 C47.8421521,43.6093743 47.4116177,43.5531287 47.2398744,43.5531287 C47.0669549,43.5531287 46.2352941,43.3337708 46.2352941,43.3337708 L46.2352941,42.4034685 C46.2352941,42.4034685 46.3505738,41.8815093 46.292934,41.7172721 L46.7975768,41.6362784 L47.6362955,41.4709163 L47.8833234,41.3055543 L48.2362205,40.8668385 C48.2362205,40.8668385 47.8397994,40.59236 48.1256461,40.2087649 C48.2632759,40.0242794 48.7585081,39.9894071 48.9878912,39.8251699 C49.216098,39.6609327 49.5631134,39.5506914 49.5631134,39.5506914 C49.5631134,39.5506914 49.9654161,39.222217 50.3665424,38.8374971 C50.3665424,38.8374971 50.6535654,38.672135 50.9970518,38.5618936 C50.9970518,38.5618936 51.9734004,39.3853293 52.1463199,39.3853293 C52.3192395,39.3853293 52.9509253,39.0017342 52.9509253,39.0017342 C52.9509253,39.0017342 53.1226685,38.5090227 53.0673813,38.3436607 C53.0097414,38.1794235 52.7227185,37.6304664 52.7227185,37.6304664 C52.7227185,37.6304664 52.5509752,37.9049449 52.3804083,38.1243028 C52.2086651,38.3436607 52.0910327,38.6181392 52.0910327,38.6181392 C52.0910327,38.6181392 51.2840748,38.5641434 51.2299639,38.3999063 C51.172324,38.2345442 51.0582207,37.9645653 50.9994045,37.801453 C50.9441173,37.6360909 50.4841748,37.6417155 50.1418646,37.7519569 C49.7960255,37.8621983 50.1971518,37.1602531 50.1971518,37.1602531 C50.1971518,37.1602531 50.5429909,36.7462854 50.7711977,36.7462854 C50.9982282,36.7462854 51.5193395,36.4650574 51.7451936,36.4110616 C51.9734004,36.3559409 52.6650786,35.9340989 52.9497489,35.9340989 C53.2367719,35.9340989 53.5814347,35.8823529 53.7555306,35.8823529 C53.9272738,35.8823529 54.6130704,35.8823529 54.6130704,35.8823529 L55.8164494,35.9599719 C55.8164494,35.9599719 56.8504378,36.4099367 56.5034224,36.6304195 C56.5034224,36.6304195 56.9080777,36.9116475 57.0798209,37.0758847 C57.2409772,37.2311226 57.6562194,36.9543942 57.8950131,36.8272791 C62.1874177,39.4055777 65.0588235,43.9727209 65.0588235,49.1686899 C65.0588235,49.4476682 65.0341207,49.7255214 65.0176522,50 C64.9082541,49.7390204 64.7482741,49.4082962 64.7082791,49.2643075 Z" id="Shape"></path>
            </g>
        </g>
    </g>
</svg>