<?xml version="1.0" encoding="UTF-8"?>
<svg width="100px" height="100px" viewBox="0 0 100 100" version="1.1" xmlns="http://www.w3.org/2000/svg" xmlns:xlink="http://www.w3.org/1999/xlink">
    <!-- Generator: Sketch 54.1 (76490) - https://sketchapp.com -->
    <title>Combined Shape</title>
    <desc>Created with Sketch.</desc>
    <g id="Symbols" stroke="none" stroke-width="1" fill="none" fill-rule="evenodd">
        <g id="reg2-copy-2" transform="translate(-40.000000, -40.000000)" fill="#BB8961">
            <g id="Group-2" transform="translate(40.000000, 40.000000)">
                <path d="M50,2 C49.4477153,2 49,1.55228475 49,1 C49,0.44771525 49.4477153,0 50,0 C50.5522847,0 51,0.44771525 51,1 C51,1.55228475 50.5522847,2 50,2 Z M50,100 C49.4477153,100 49,99.5522847 49,99 C49,98.4477153 49.4477153,98 50,98 C50.5522847,98 51,98.4477153 51,99 C51,99.5522847 50.5522847,100 50,100 Z M58.3351125,2.72922786 C57.7912182,2.63332462 57.4280497,2.11466623 57.523953,1.57077192 C57.6198562,1.02687762 58.1385146,0.663709109 58.6824089,0.759612349 C59.2263032,0.85551559 59.5894717,1.37417398 59.4935685,1.91806828 C59.3976652,2.46196258 58.8790068,2.8251311 58.3351125,2.72922786 Z M41.3175911,99.2403877 C40.7736968,99.1444844 40.4105283,98.625826 40.5064315,98.0819317 C40.6023348,97.5380374 41.1209932,97.1748689 41.6648875,97.2707721 C42.2087818,97.3666754 42.5719503,97.8853338 42.476047,98.4292281 C42.3801438,98.9731224 41.8614854,99.3362909 41.3175911,99.2403877 Z M66.4169669,4.8947542 C65.897989,4.70586169 65.6304019,4.13201934 65.8192944,3.61304144 C66.0081869,3.09406353 66.5820293,2.82647645 67.1010072,3.01536896 C67.6199851,3.20426147 67.8875722,3.77810382 67.6986796,4.29708172 C67.5097871,4.81605963 66.9359448,5.08364671 66.4169669,4.8947542 Z M32.8989928,96.984631 C32.3800149,96.7957385 32.1124278,96.2218962 32.3013204,95.7029183 C32.4902129,95.1839404 33.0640552,94.9163533 33.5830331,95.1052458 C34.102011,95.2941383 34.3695981,95.8679807 34.1807056,96.3869586 C33.9918131,96.9059365 33.4179707,97.1735235 32.8989928,96.984631 Z M74,8.43078062 C73.5217074,8.15463824 73.3578322,7.54304784 73.6339746,7.06475521 C73.910117,6.58646259 74.5217074,6.42258744 75,6.69872981 C75.4782926,6.97487219 75.6421678,7.58646259 75.3660254,8.06475521 C75.089883,8.54304784 74.4782926,8.70692299 74,8.43078062 Z M25,93.3012702 C24.5217074,93.0251278 24.3578322,92.4135374 24.6339746,91.9352448 C24.910117,91.4569522 25.5217074,91.293077 26,91.5692194 C26.4782926,91.8453618 26.6421678,92.4569522 26.3660254,92.9352448 C26.089883,93.4135374 25.4782926,93.5774126 25,93.3012702 Z M80.8538053,13.2298667 C80.4307306,12.8748649 80.3755466,12.2441093 80.7305484,11.8210347 C81.0855502,11.39796 81.7163058,11.342776 82.1393805,11.6977778 C82.5624551,12.0527796 82.6176391,12.6835352 82.2626373,13.1066099 C81.9076355,13.5296846 81.2768799,13.5848685 80.8538053,13.2298667 Z M17.8606195,88.3022222 C17.4375449,87.9472204 17.3823609,87.3164648 17.7373627,86.8933901 C18.0923645,86.4703154 18.7231201,86.4151315 19.1461947,86.7701333 C19.5692694,87.1251351 19.6244534,87.7558907 19.2694516,88.1789653 C18.9144498,88.60204 18.2836942,88.657224 17.8606195,88.3022222 Z M86.7701333,19.1461947 C86.4151315,18.7231201 86.4703154,18.0923645 86.8933901,17.7373627 C87.3164648,17.3823609 87.9472204,17.4375449 88.3022222,17.8606195 C88.657224,18.2836942 88.60204,18.9144498 88.1789653,19.2694516 C87.7558907,19.6244534 87.1251351,19.5692694 86.7701333,19.1461947 Z M11.6977778,82.1393805 C11.342776,81.7163058 11.39796,81.0855502 11.8210347,80.7305484 C12.2441093,80.3755466 12.8748649,80.4307306 13.2298667,80.8538053 C13.5848685,81.2768799 13.5296846,81.9076355 13.1066099,82.2626373 C12.6835352,82.6176391 12.0527796,82.5624551 11.6977778,82.1393805 Z M91.5692194,26 C91.293077,25.5217074 91.4569522,24.910117 91.9352448,24.6339746 C92.4135374,24.3578322 93.0251278,24.5217074 93.3012702,25 C93.5774126,25.4782926 93.4135374,26.089883 92.9352448,26.3660254 C92.4569522,26.6421678 91.8453618,26.4782926 91.5692194,26 Z M6.69872981,75 C6.42258744,74.5217074 6.58646259,73.910117 7.06475521,73.6339746 C7.54304784,73.3578322 8.15463824,73.5217074 8.43078062,74 C8.70692299,74.4782926 8.54304784,75.089883 8.06475521,75.3660254 C7.58646259,75.6421678 6.97487219,75.4782926 6.69872981,75 Z M95.1052458,33.5830331 C94.9163533,33.0640552 95.1839404,32.4902129 95.7029183,32.3013204 C96.2218962,32.1124278 96.7957385,32.3800149 96.984631,32.8989928 C97.1735235,33.4179707 96.9059365,33.9918131 96.3869586,34.1807056 C95.8679807,34.3695981 95.2941383,34.102011 95.1052458,33.5830331 Z M3.01536896,67.1010072 C2.82647645,66.5820293 3.09406353,66.0081869 3.61304144,65.8192944 C4.13201934,65.6304019 4.70586169,65.897989 4.8947542,66.4169669 C5.08364671,66.9359448 4.81605963,67.5097871 4.29708172,67.6986796 C3.77810382,67.8875722 3.20426147,67.6199851 3.01536896,67.1010072 Z M97.2707721,41.6648875 C97.1748689,41.1209932 97.5380374,40.6023348 98.0819317,40.5064315 C98.625826,40.4105283 99.1444844,40.7736968 99.2403877,41.3175911 C99.3362909,41.8614854 98.9731224,42.3801438 98.4292281,42.476047 C97.8853338,42.5719503 97.3666754,42.2087818 97.2707721,41.6648875 Z M0.759612349,58.6824089 C0.663709109,58.1385146 1.02687762,57.6198562 1.57077192,57.523953 C2.11466623,57.4280497 2.63332462,57.7912182 2.72922786,58.3351125 C2.8251311,58.8790068 2.46196258,59.3976652 1.91806828,59.4935685 C1.37417398,59.5894717 0.85551559,59.2263032 0.759612349,58.6824089 Z M98,50 C98,49.4477153 98.4477153,49 99,49 C99.5522847,49 100,49.4477153 100,50 C100,50.5522847 99.5522847,51 99,51 C98.4477153,51 98,50.5522847 98,50 Z M-4.26325641e-14,50 C-4.26325641e-14,49.4477153 0.44771525,49 1,49 C1.55228475,49 2,49.4477153 2,50 C2,50.5522847 1.55228475,51 1,51 C0.44771525,51 -4.26325641e-14,50.5522847 -4.26325641e-14,50 Z M97.2707721,58.3351125 C97.3666754,57.7912182 97.8853338,57.4280497 98.4292281,57.523953 C98.9731224,57.6198562 99.3362909,58.1385146 99.2403877,58.6824089 C99.1444844,59.2263032 98.625826,59.5894717 98.0819317,59.4935685 C97.5380374,59.3976652 97.1748689,58.8790068 97.2707721,58.3351125 Z M0.759612349,41.3175911 C0.85551559,40.7736968 1.37417398,40.4105283 1.91806828,40.5064315 C2.46196258,40.6023348 2.8251311,41.1209932 2.72922786,41.6648875 C2.63332462,42.2087818 2.11466623,42.5719503 1.57077192,42.476047 C1.02687762,42.3801438 0.663709109,41.8614854 0.759612349,41.3175911 Z M95.1052458,66.4169669 C95.2941383,65.897989 95.8679807,65.6304019 96.3869586,65.8192944 C96.9059365,66.0081869 97.1735235,66.5820293 96.984631,67.1010072 C96.7957385,67.6199851 96.2218962,67.8875722 95.7029183,67.6986796 C95.1839404,67.5097871 94.9163533,66.9359448 95.1052458,66.4169669 Z M3.01536896,32.8989928 C3.20426147,32.3800149 3.77810382,32.1124278 4.29708172,32.3013204 C4.81605963,32.4902129 5.08364671,33.0640552 4.8947542,33.5830331 C4.70586169,34.102011 4.13201934,34.3695981 3.61304144,34.1807056 C3.09406353,33.9918131 2.82647645,33.4179707 3.01536896,32.8989928 Z M91.5692194,74 C91.8453618,73.5217074 92.4569522,73.3578322 92.9352448,73.6339746 C93.4135374,73.910117 93.5774126,74.5217074 93.3012702,75 C93.0251278,75.4782926 92.4135374,75.6421678 91.9352448,75.3660254 C91.4569522,75.089883 91.293077,74.4782926 91.5692194,74 Z M6.69872981,25 C6.97487219,24.5217074 7.58646259,24.3578322 8.06475521,24.6339746 C8.54304784,24.910117 8.70692299,25.5217074 8.43078062,26 C8.15463824,26.4782926 7.54304784,26.6421678 7.06475521,26.3660254 C6.58646259,26.089883 6.42258744,25.4782926 6.69872981,25 Z M86.7701333,80.8538053 C87.1251351,80.4307306 87.7558907,80.3755466 88.1789653,80.7305484 C88.60204,81.0855502 88.657224,81.7163058 88.3022222,82.1393805 C87.9472204,82.5624551 87.3164648,82.6176391 86.8933901,82.2626373 C86.4703154,81.9076355 86.4151315,81.2768799 86.7701333,80.8538053 Z M11.6977778,17.8606195 C12.0527796,17.4375449 12.6835352,17.3823609 13.1066099,17.7373627 C13.5296846,18.0923645 13.5848685,18.7231201 13.2298667,19.1461947 C12.8748649,19.5692694 12.2441093,19.6244534 11.8210347,19.2694516 C11.39796,18.9144498 11.342776,18.2836942 11.6977778,17.8606195 Z M80.8538053,86.7701333 C81.2768799,86.4151315 81.9076355,86.4703154 82.2626373,86.8933901 C82.6176391,87.3164648 82.5624551,87.9472204 82.1393805,88.3022222 C81.7163058,88.657224 81.0855502,88.60204 80.7305484,88.1789653 C80.3755466,87.7558907 80.4307306,87.1251351 80.8538053,86.7701333 Z M17.8606195,11.6977778 C18.2836942,11.342776 18.9144498,11.39796 19.2694516,11.8210347 C19.6244534,12.2441093 19.5692694,12.8748649 19.1461947,13.2298667 C18.7231201,13.5848685 18.0923645,13.5296846 17.7373627,13.1066099 C17.3823609,12.6835352 17.4375449,12.0527796 17.8606195,11.6977778 Z M74,91.5692194 C74.4782926,91.293077 75.089883,91.4569522 75.3660254,91.9352448 C75.6421678,92.4135374 75.4782926,93.0251278 75,93.3012702 C74.5217074,93.5774126 73.910117,93.4135374 73.6339746,92.9352448 C73.3578322,92.4569522 73.5217074,91.8453618 74,91.5692194 Z M25,6.69872981 C25.4782926,6.42258744 26.089883,6.58646259 26.3660254,7.06475521 C26.6421678,7.54304784 26.4782926,8.15463824 26,8.43078062 C25.5217074,8.70692299 24.910117,8.54304784 24.6339746,8.06475521 C24.3578322,7.58646259 24.5217074,6.97487219 25,6.69872981 Z M66.4169669,95.1052458 C66.9359448,94.9163533 67.5097871,95.1839404 67.6986796,95.7029183 C67.8875722,96.2218962 67.6199851,96.7957385 67.1010072,96.984631 C66.5820293,97.1735235 66.0081869,96.9059365 65.8192944,96.3869586 C65.6304019,95.8679807 65.897989,95.2941383 66.4169669,95.1052458 Z M32.8989928,3.01536896 C33.4179707,2.82647645 33.9918131,3.09406353 34.1807056,3.61304144 C34.3695981,4.13201934 34.102011,4.70586169 33.5830331,4.8947542 C33.0640552,5.08364671 32.4902129,4.81605963 32.3013204,4.29708172 C32.1124278,3.77810382 32.3800149,3.20426147 32.8989928,3.01536896 Z M58.3351125,97.2707721 C58.8790068,97.1748689 59.3976652,97.5380374 59.4935685,98.0819317 C59.5894717,98.625826 59.2263032,99.1444844 58.6824089,99.2403877 C58.1385146,99.3362909 57.6198562,98.9731224 57.523953,98.4292281 C57.4280497,97.8853338 57.7912182,97.3666754 58.3351125,97.2707721 Z M41.3175911,0.759612349 C41.8614854,0.663709109 42.3801438,1.02687762 42.476047,1.57077192 C42.5719503,2.11466623 42.2087818,2.63332462 41.6648875,2.72922786 C41.1209932,2.8251311 40.6023348,2.46196258 40.5064315,1.91806828 C40.4105283,1.37417398 40.7736968,0.85551559 41.3175911,0.759612349 Z" id="Combined-Shape"></path>
            </g>
        </g>
    </g>
</svg>