<?xml version="1.0" encoding="UTF-8"?>
<svg width="28px" height="29px" viewBox="0 0 28 29" version="1.1" xmlns="http://www.w3.org/2000/svg" xmlns:xlink="http://www.w3.org/1999/xlink">
    <!-- Generator: Sketch 54.1 (76490) - https://sketchapp.com -->
    <title>dollar-coin-money copy 2</title>
    <desc>Created with Sketch.</desc>
    <g id="Symbols" stroke="none" stroke-width="1" fill="none" fill-rule="evenodd">
        <g id="reg2-copy-2" transform="translate(-42.000000, -110.000000)">
            <g id="Group-2" transform="translate(40.000000, 40.000000)">
                <g id="dollar-coin-money-copy-2" transform="translate(2.000000, 70.183486)">
                    <path d="M14,0 C6.26855469,0 0,6.26855469 0,14 C0,21.7314453 6.26855469,28 14,28 C21.7331406,28 28,21.7314453 28,14 C28,6.26855469 21.7331406,0 14,0 Z" id="Shape" fill="#D4A077"></path>
                    <path d="M18.2040665,17.5964588 C17.7716128,17.8198288 16.806413,18.1231037 15.8642161,18.1231037 C14.8373686,18.1231037 13.8712487,17.8198288 13.2152073,17.088882 C12.9060489,16.7465628 12.6806209,16.2780305 12.5370831,15.6705728 L17.6915629,15.6705728 L17.6915629,14.2322874 L12.2509276,14.2322874 C12.2509276,14.1314985 12.2509276,14.0307095 12.2509276,13.9081284 C12.2509276,13.6847583 12.2509276,13.4840884 12.27025,13.2797865 L17.692483,13.2797865 L17.692483,11.8415011 L12.5794084,11.8415011 C12.7247864,11.3148562 12.9272115,10.8490479 13.23729,10.5248889 C13.8721688,9.77396586 14.7775612,9.42983065 15.742761,9.42983065 C16.6435528,9.42983065 17.50754,9.69406111 18.0412063,9.91652318 L18.6144374,7.60745766 C17.8746656,7.28420665 16.7677682,7 15.5348152,7 C13.5850932,7 11.9417692,7.76908317 10.7934667,9.08751146 C10.1374253,9.81664225 9.62400157,10.7491669 9.37649085,11.8424091 L8,11.8424091 L8,13.2797865 L9.15106287,13.2797865 C9.15106287,13.4840884 9.12990024,13.6856663 9.12990024,13.8881522 C9.12990024,14.0089173 9.12990024,14.1333145 9.12990024,14.2322874 L8,14.2322874 L8,15.6714808 L9.33600582,15.6714808 C9.52094878,16.7474709 9.93039959,17.616435 10.4852285,18.3047054 C11.6362913,19.8038273 13.4617979,20.6146789 15.4934101,20.6146789 C16.8082533,20.6146789 17.9998011,20.2296833 18.6972477,19.8465037 L18.2040665,17.5964588 Z" id="Path" fill="#F8F8F8"></path>
                </g>
            </g>
        </g>
    </g>
</svg>