<?xml version="1.0" encoding="UTF-8"?>
<svg width="97px" height="37px" viewBox="0 0 97 37" version="1.1" xmlns="http://www.w3.org/2000/svg" xmlns:xlink="http://www.w3.org/1999/xlink">
    <!-- Generator: Sketch 54.1 (76490) - https://sketchapp.com -->
    <title>Group</title>
    <desc>Created with Sketch.</desc>
    <g id="Symbols" stroke="none" stroke-width="1" fill="none" fill-rule="evenodd">
        <g id="reg2" transform="translate(-46.000000, -105.000000)">
            <g id="Group" transform="translate(46.000000, 105.000000)">
                <path d="M77.717114,12 C74.928316,5.36008168 72.7812323,0 73,0 L79,0 C79.6824487,0 80.2153353,0.349517474 80,1 L88,18 L90,22 L89.8823529,22 L96,35 C96.0757571,35.4523514 96.0252971,35.9597156 96,36 C95.4824717,36.7594718 95.0260396,37 95,37 L89,37 C88.6427052,37 85.4379636,29.9471699 81.9880902,22 L59,22 L77,37 L59,37 L29,13 L18,37 L6,37 L12,22 L1.42108547e-14,22 L4,12 L17,12 L22,0 L33,0 L46,12 L77.717114,12 Z" id="Combined-Shape" fill="#D8D8D8"></path>
                <path d="M77.717114,12 L85,12 L88,18 L89.8823529,22 L81.9880902,22 C80.5437419,18.6727818 79.0564263,15.1888018 77.717114,12 Z" id="Combined-Shape-Copy" fill="#C4C4C4"></path>
            </g>
        </g>
    </g>
</svg>