<?xml version="1.0" encoding="UTF-8"?>
<svg width="28px" height="19px" viewBox="0 0 28 19" version="1.1" xmlns="http://www.w3.org/2000/svg" xmlns:xlink="http://www.w3.org/1999/xlink">
    <!-- Generator: Sketch 54.1 (76490) - https://sketchapp.com -->
    <title>MobileMe Copy</title>
    <desc>Created with Sketch.</desc>
    <g id="Symbols" stroke="none" stroke-width="1" fill="none" fill-rule="evenodd">
        <g id="reg2" transform="translate(-35.000000, -84.000000)" fill="#EEEEEE">
            <path d="M62.0833333,97.6257452 C62.0833333,100.593838 59.7024114,103 56.7665581,103 L40.3158307,103 C37.3800404,103 35,100.593838 35,97.6257452 C35,94.9450931 36.9410319,92.7244092 39.4805057,92.3180756 C39.4483294,92.1299441 39.4305726,91.9363797 39.4305726,91.7371297 C39.4305726,89.8565101 40.9387669,88.3321905 42.7997043,88.3321905 C43.6296142,88.3321905 44.390134,88.6355509 44.9768639,89.1403092 C46.0228777,86.7577109 47.3638307,84.5833333 51.1257528,84.5833333 C55.6881161,84.5833333 57.8504783,88.1402054 57.8504783,91.8934848 C57.8504783,92.0504715 57.8439297,92.2060053 57.8334141,92.3598966 C60.2584132,92.8594115 62.0833333,95.0270295 62.0833333,97.6257452 Z" id="MobileMe-Copy"></path>
        </g>
    </g>
</svg>