<?xml version="1.0" encoding="UTF-8"?>
<svg width="65px" height="84px" viewBox="0 0 65 84" version="1.1" xmlns="http://www.w3.org/2000/svg" xmlns:xlink="http://www.w3.org/1999/xlink">
    <!-- Generator: Sketch 54.1 (76490) - https://sketchapp.com -->
    <title>Group 2</title>
    <desc>Created with Sketch.</desc>
    <defs>
        <path d="M32.5,1.42108547e-13 C14.5797257,1.53459194e-13 0,14.4684154 0,32.2518756 C0,38.3827584 1.68127847,44.8880463 4.99746048,51.5852168 C7.62116668,56.8853882 11.2721897,62.3236217 15.8483482,67.747815 C23.6125689,76.9495993 31.257316,82.857399 31.5787946,83.1046625 C31.8507547,83.3129251 32.1753773,83.4166667 32.5,83.4166667 C32.8246227,83.4166667 33.1500315,83.3129251 33.4212054,83.1046625 C33.742684,82.857399 41.3874311,76.9495993 49.1516518,67.747815 C53.7278103,62.3236217 57.3788333,56.8853882 60.0033255,51.5852168 C63.3187215,44.8880463 65,38.3827584 65,32.2518756 C65,14.4684154 50.4210603,1.42108547e-13 32.5,1.42108547e-13 Z" id="path-1"></path>
    </defs>
    <g id="Symbols" stroke="none" stroke-width="1" fill="none" fill-rule="evenodd">
        <g id="reg2" transform="translate(-58.000000, -38.000000)">
            <g id="Group-2" transform="translate(58.000000, 38.000000)">
                <mask id="mask-2" fill="white">
                    <use xlink:href="#path-1"></use>
                </mask>
                <use id="Mask" fill="#D4A077" xlink:href="#path-1"></use>
                <g id="Mask-+-Mask-Mask" mask="url(#mask-2)" fill="#BB8961">
                    <g transform="translate(28.333333, 0.000000)" id="Combined-Shape">
                        <path d="M24.7136967,52 C24.7831969,51.8616469 24.8520037,51.7233849 24.9201152,51.5852168 C28.2224874,44.8880463 29.8967644,38.3827584 29.8967644,32.2518756 C29.8967644,15.6072307 17.178052,1.86734512 0.916666667,0.176282281 C2.02893754,0.0600607613 3.15842876,1.13506472e-14 4.30122648,1.13506472e-14 C22.1476566,0 36.665884,14.4684154 36.6666667,32.2518756 C36.6666667,38.3827584 34.9923897,44.8880463 31.6900175,51.5852168 C31.621906,51.7233849 31.5530992,51.8616469 31.4835989,52 L35.1666667,52 C35.9950938,52 36.6666667,52.6715729 36.6666667,53.5 L36.6666667,54.5 C36.6666667,55.3284271 35.9950938,56 35.1666667,56 L29.2962133,56 C28.5114961,57.3282121 27.6657781,58.6623148 26.7605915,60 L31.1666667,60 C31.9950938,60 32.6666667,60.6715729 32.6666667,61.5 L32.6666667,62.5 C32.6666667,63.3284271 31.9950938,64 31.1666667,64 L23.8845258,64 C22.9339185,65.2487778 21.933177,66.4986687 20.8835344,67.747815 C20.8126677,67.832154 20.7418111,67.9162163 20.67097,68 L26.1666667,68 C26.9950938,68 27.6666667,68.6715729 27.6666667,69.5 L27.6666667,70.5 C27.6666667,71.3284271 26.9950938,72 26.1666667,72 L17.1196363,72 C10.850158,78.7355777 5.48621755,82.8979617 5.2185956,83.1046625 C4.94855099,83.3129251 4.62528018,83.4166667 4.30122648,83.4166667 C3.97795567,83.4166667 3.65468486,83.3129251 3.38464004,83.1046625 C3.27818765,83.0227614 2.36551505,82.3145116 0.916666667,81.0727349 C3.11950793,79.1859525 6.56999179,76.0616474 10.3506447,72 L7.16666667,72 C6.33823954,72 5.66666667,71.3284271 5.66666667,70.5 L5.66666667,69.5 C5.66666667,68.6715729 6.33823954,68 7.16666667,68 L13.9018667,68 C13.9727019,67.916217 14.0435531,67.8321547 14.1144148,67.747815 C15.1638771,66.4986687 16.1644799,65.2487778 17.1149804,64 L12.1666667,64 C11.3382395,64 10.6666667,63.3284271 10.6666667,62.5 L10.6666667,61.5 C10.6666667,60.6715729 11.3382395,60 12.1666667,60 L19.9908002,60 C20.895935,58.6623147 21.741625,57.328212 22.5263275,56 L16.1666667,56 C15.3382395,56 14.6666667,55.3284271 14.6666667,54.5 L14.6666667,53.5 C14.6666667,52.6715729 15.3382395,52 16.1666667,52 L24.7136967,52 Z"></path>
                    </g>
                </g>
                <path d="M45.5,32.5 C45.5,40.278336 39.1950026,46.5833333 31.4166667,46.5833333 C23.6389024,46.5833333 17.3333333,40.278336 17.3333333,32.5 C17.3333333,24.7222357 23.6389024,18.4166667 31.4166667,18.4166667 C39.1950026,18.4166667 45.5,24.7222357 45.5,32.5 Z" id="Path" fill="#F8F8F8" mask="url(#mask-2)"></path>
            </g>
        </g>
    </g>
</svg>