<?xml version="1.0" encoding="UTF-8"?>
<svg width="74px" height="100px" viewBox="0 0 74 100" version="1.1" xmlns="http://www.w3.org/2000/svg" xmlns:xlink="http://www.w3.org/1999/xlink">
    <!-- Generator: Sketch 54.1 (76490) - https://sketchapp.com -->
    <title>Group</title>
    <desc>Created with Sketch.</desc>
    <g id="Symbols" stroke="none" stroke-width="1" fill="none" fill-rule="evenodd">
        <g id="reg2-copy" transform="translate(-52.000000, -38.000000)">
            <g id="Group" transform="translate(52.000000, 38.000000)">
                <path d="M-7.10542736e-15,96 L-7.10542736e-15,5.9724592 C-7.10542736e-15,2.6737173 2.70809106,0 6.04924215,0 L67.9515224,0 C71.2926737,0 74,2.6737173 74,5.9724592 L74,82 C74,89.7319865 67.7319865,96 60,96 L-7.10542736e-15,96 Z" id="Path-Copy-2" fill="#D4A077"></path>
                <path d="M4,99.8292943 C3.68722107,99.9398458 3.35063542,100 3,100 C1.34314575,100 7.10542736e-14,98.6568542 7.10542736e-14,97 C7.10542736e-14,95.3431458 1.34314575,94 3,94 C3.35063542,94 3.68722107,94.0601542 4,94.1707057 L4,93.91167 L68.2110317,93.91167 C71.564943,93.9124461 74,90.3916697 74,87 L74,94 C74,97.3916695 71.564943,100 68.2110317,100 L4,100 L4,99.8292943 Z" id="Mask" fill="#D8D8D8"></path>
                <path d="M74,88.588272 C74,91.9862423 71.0460338,94 67.4005005,94 L63,94 C66.6455332,94 70,92.3979703 70,89 L70,6 C70,2.60202967 66.6455332,0 63,0 L67.4005005,0 C71.0460338,0 74,2.75414423 74,6.15211457 L74,88.588272 Z" id="Path" fill="#BB8961"></path>
            </g>
        </g>
    </g>
</svg>