<?xml version="1.0" encoding="UTF-8"?>
<svg width="46px" height="46px" viewBox="0 0 46 46" version="1.1" xmlns="http://www.w3.org/2000/svg" xmlns:xlink="http://www.w3.org/1999/xlink">
    <!-- Generator: Sketch 54.1 (76490) - https://sketchapp.com -->
    <title>Shape</title>
    <desc>Created with Sketch.</desc>
    <g id="Symbols" stroke="none" stroke-width="1" fill="none" fill-rule="evenodd">
        <g id="reg2-copy" transform="translate(-66.000000, -63.000000)" fill="#F8F8F8">
            <path d="M112,86.0003775 C112,73.327933 101.698495,63.0173668 89.0305805,63.000755 C89.0245399,63.000755 89.0184992,63.000755 89.0117036,63.000755 C89.0079283,63.000755 89.0041529,63 89.0003774,63 C88.995092,63 88.9905615,63.000755 88.9852761,63.000755 C88.9807455,63.000755 88.9769702,63.000755 88.9724396,63.000755 C76.3030153,63.0158566 66,73.3271778 66,86.0003775 C66,98.6796179 76.3135865,108.99547 88.9920717,109 L88.9988674,109 L89.0003774,109 L89.0011326,109 L89.0079283,109 C101.686414,108.99547 112,98.6796179 112,86.0003775 Z M108.957043,84.5068368 L101.99524,84.5068368 C101.600335,77.8463093 98.6162734,71.1223551 94.3289506,66.7089345 C102.322943,68.9190427 108.325044,75.9774955 108.957043,84.5068368 Z M87.5068367,67.2503241 L87.5068367,84.5068368 L78.9963723,84.5068368 C79.4531936,77.8062901 82.9046469,70.8980975 87.5068367,67.2503241 Z M87.5068367,87.4939184 L87.5068367,104.750431 C82.9046469,101.101902 79.4531936,94.1944649 78.9963723,87.4939184 L87.5068367,87.4939184 Z M90.4931633,104.750431 L90.4931633,87.4939184 L99.0043827,87.4939184 C98.5475616,94.1944649 95.0953529,101.101902 90.4931633,104.750431 Z M90.4931633,84.5068368 L90.4931633,67.2503241 C95.0953529,70.8980975 98.5468064,77.8062901 99.0043827,84.5068368 L90.4931633,84.5068368 Z M83.6710494,66.7089345 C79.3837264,71.1216001 76.3996651,77.8463093 76.0047603,84.5068368 L69.0429574,84.5068368 C69.6749561,75.9774955 75.6770571,68.9190427 83.6710494,66.7089345 Z M69.0429574,87.4939184 L76.0047603,87.4939184 C76.3996651,94.154446 79.3837264,100.8784 83.6710494,105.291065 C75.6770571,103.080957 69.6749561,96.0232597 69.0429574,87.4939184 Z M94.3289506,105.291821 C98.6162734,100.8784 101.600335,94.154446 101.99524,87.4939184 L108.957043,87.4939184 C108.325044,96.0232597 102.322943,103.080957 94.3289506,105.291821 Z" id="Shape"></path>
        </g>
    </g>
</svg>