<?xml version="1.0" encoding="UTF-8"?>
<svg width="48px" height="71px" viewBox="0 0 48 71" version="1.1" xmlns="http://www.w3.org/2000/svg" xmlns:xlink="http://www.w3.org/1999/xlink">
    <!-- Generator: Sketch 54.1 (76490) - https://sketchapp.com -->
    <title>Group 2</title>
    <desc>Created with Sketch.</desc>
    <g id="Symbols" stroke="none" stroke-width="1" fill="none" fill-rule="evenodd">
        <g id="reg2-copy" transform="translate(-65.000000, -50.000000)" fill="#BB8961">
            <g id="Group-2" transform="translate(65.000000, 50.000000)">
                <path d="M46.4415225,3 L1.55847747,3 C0.697296446,3 0,2.32869772 0,1.50037934 C0,0.67130209 0.698084503,0 1.55847747,0 L46.4415225,0 C47.3027034,0 48,0.67130209 48,1.50037934 C48,2.32869772 47.3027034,3 46.4415225,3 Z" id="Path"></path>
                <path d="M30.5450534,71 L17.4549466,71 C16.6508102,71 16,70.8082548 16,70.5713357 L16,68.4286643 C16,68.1920702 16.6508102,68 17.4549466,68 L30.5450534,68 C31.3491898,68 32,68.1920702 32,68.4286643 L32,70.5713357 C32,70.8082548 31.3491898,71 30.5450534,71 Z" id="Path"></path>
            </g>
        </g>
    </g>
</svg>