<?xml version="1.0" encoding="UTF-8"?>
<svg width="6px" height="6px" viewBox="0 0 6 6" version="1.1" xmlns="http://www.w3.org/2000/svg" xmlns:xlink="http://www.w3.org/1999/xlink">
    <!-- Generator: Sketch 54.1 (76490) - https://sketchapp.com -->
    <title>Star Copy 2</title>
    <desc>Created with Sketch.</desc>
    <g id="Settings" stroke="none" stroke-width="1" fill="none" fill-rule="evenodd">
        <path d="M1.46460193,3.97202483 L0.434314575,3.56568542 C0.121895142,3.442469 -0.0314841984,3.08931635 0.0917322305,2.77689692 C0.15354127,2.62017801 0.277595661,2.49612361 0.434314575,2.43431458 L1.46460193,2.02797517 C1.72232461,1.92633082 1.92633082,1.72232461 2.02797517,1.46460193 L2.43431458,0.434314575 C2.557531,0.121895142 2.91068365,-0.0314841984 3.22310308,0.0917322305 C3.37982199,0.15354127 3.50387639,0.277595661 3.56568542,0.434314575 L3.97202483,1.46460193 C4.07366918,1.72232461 4.27767539,1.92633082 4.53539807,2.02797517 L5.56568542,2.43431458 C5.87810486,2.557531 6.0314842,2.91068365 5.90826777,3.22310308 C5.84645873,3.37982199 5.72240434,3.50387639 5.56568542,3.56568542 L4.53539807,3.97202483 C4.27767539,4.07366918 4.07366918,4.27767539 3.97202483,4.53539807 L3.56568542,5.56568542 C3.442469,5.87810486 3.08931635,6.0314842 2.77689692,5.90826777 C2.62017801,5.84645873 2.49612361,5.72240434 2.43431458,5.56568542 L2.02797517,4.53539807 C1.92633082,4.27767539 1.72232461,4.07366918 1.46460193,3.97202483 Z" id="Star-Copy-2" fill="#FFFFFF" fill-rule="nonzero"></path>
    </g>
</svg>