<?xml version="1.0" encoding="UTF-8"?>
<svg width="24px" height="24px" viewBox="0 0 24 24" version="1.1" xmlns="http://www.w3.org/2000/svg" xmlns:xlink="http://www.w3.org/1999/xlink">
    <!-- Generator: Sketch 54.1 (76490) - https://sketchapp.com -->
    <title>Combined Shape</title>
    <desc>Created with Sketch.</desc>
    <g id="Symbols" stroke="none" stroke-width="1" fill="none" fill-rule="evenodd">
        <g id="reg2-copy-5" transform="translate(-78.000000, -89.000000)" fill="#F8F8F8">
            <path d="M81.1245,102.5 L86.1615,102.5 L82.455,105.9065 C84.06,108.371 86.841,110 90,110 C94.4595,110 98.1615,106.757 98.8755,102.5 L101.907,102.5 C101.169,108.419 96.12,113 90,113 C85.9665,113 82.398,111.0095 80.2215,107.9585 L78,110 L78,102.5 L78.093,102.5 L81.1245,102.5 Z M90,89 C94.08,89 97.6845,91.0355 99.852,94.148 L102,92 L102,99.5 L101.907,99.5 L98.8755,99.5 L97.5,99.5 L94.5,99.5 L97.686,96.314 C96.105,93.7265 93.2535,92 90,92 C85.5405,92 81.8385,95.243 81.1245,99.5 L78.093,99.5 C78.831,93.581 83.88,89 90,89 Z" id="Combined-Shape"></path>
        </g>
    </g>
</svg>