<?xml version="1.0" encoding="UTF-8" standalone="no"?>
<!DOCTYPE svg PUBLIC "-//W3C//DTD SVG 1.1//EN" "http://www.w3.org/Graphics/SVG/1.1/DTD/svg11.dtd">
<svg width="100%" height="100%" viewBox="0 0 88 88" version="1.1" xmlns="http://www.w3.org/2000/svg" xmlns:xlink="http://www.w3.org/1999/xlink" xml:space="preserve" xmlns:serif="http://www.serif.com/" style="fill-rule:evenodd;clip-rule:evenodd;stroke-linejoin:round;stroke-miterlimit:1.41421;">
    <g id="Group-2">
        <path id="Combined-Shape" d="M72,51C72,48.792 70.208,47 68,47L20,47C17.792,47 16,48.792 16,51L16,84C16,86.208 17.792,88 20,88L68,88C70.208,88 72,86.208 72,84L72,51Z" style="fill:rgb(187,137,97);"/>
        <path id="Rectangle" d="M0,0L8,0L48,50L40,50L0,0Z" style="fill:rgb(238,238,238);"/>
        <g id="Group" transform="matrix(1,0,0,1,12,44)">
            <path id="Combined-Shape1" serif:id="Combined-Shape" d="M4,0L60,0C62.209,0 64,1.791 64,4L64,36C64,38.209 62.209,40 60,40L4,40C1.791,40 0,38.209 0,36L0,4C0,1.791 1.791,0 4,0ZM26,3C24.895,3 24,3.895 24,5C24,6.105 24.895,7 26,7L38,7C39.105,7 40,6.105 40,5C40,3.895 39.105,3 38,3L26,3Z" style="fill:rgb(252,252,252);fill-rule:nonzero;"/>
            <path id="Combined-Shape2" serif:id="Combined-Shape" d="M11.028,15.836C11.262,13.279 13.502,12 16,12C18.498,12 20.738,13.279 20.973,15.836C21.095,17.171 20.802,20.329 20.152,21.525C19.585,22.572 18.263,23.576 16.798,23.919C16.089,24.027 15.912,24.027 15.203,23.919C13.737,23.576 12.415,22.572 11.848,21.525C11.198,20.329 10.904,17.171 11.028,15.836ZM25.993,32L6.007,32C5.564,22.68 26.437,22.653 25.993,32Z" style="fill:rgb(187,137,97);"/>
            <rect id="Rectangle1" serif:id="Rectangle" x="32" y="0" width="32" height="40" style="fill:rgb(238,238,238);"/>
            <path id="Fill-12" d="M46.57,17.765C48.004,17.765 49.177,18.441 49.731,19.568L54,17.121C52.599,14.642 49.796,13 46.635,13C41.682,13 38,16.703 38,21.5C38,26.297 41.682,30 46.635,30C49.829,30 52.599,28.358 54,25.846L49.731,23.432C49.21,24.559 48.004,25.235 46.57,25.235C44.452,25.235 42.888,23.721 42.888,21.5C42.888,19.279 44.452,17.765 46.57,17.765" style="fill:rgb(18,18,18);fill-rule:nonzero;"/>
            <circle id="Oval" cx="54.5" cy="21.5" r="2.5" style="fill:rgb(212,160,119);"/>
            <path id="Rectangle2" serif:id="Rectangle" d="M40,5C40,3.896 39.104,3 38,3L26,3C24.896,3 24,3.896 24,5C24,6.104 24.896,7 26,7L38,7C39.104,7 40,6.104 40,5Z" style="fill:rgb(238,238,238);"/>
        </g>
        <g id="Rectangle-Copy-3" transform="matrix(-1,0,0,1,128,0)">
            <path d="M40,0L48,0L88,50L80,50L40,0Z" style="fill:rgb(252,252,252);fill-rule:nonzero;"/>
        </g>
    </g>
</svg>
