<?xml version="1.0" encoding="UTF-8"?>
<svg width="68px" height="15px" viewBox="0 0 68 15" version="1.1" xmlns="http://www.w3.org/2000/svg" xmlns:xlink="http://www.w3.org/1999/xlink">
    <!-- Generator: Sketch 54.1 (76490) - https://sketchapp.com -->
    <title>Group 12</title>
    <desc>Created with Sketch.</desc>
    <g id="Settings" stroke="none" stroke-width="1" fill="none" fill-rule="evenodd">
        <g id="Group-12" fill-rule="nonzero">
            <polygon id="Combined-Shape" fill="#BB8961" points="45 15 23 15 23 1 26.6666667 6 30.3333333 1 34 6 37.6666667 1 41.3333333 6 45 1"></polygon>
            <path d="M23,1 L26,6 L23,8 L23,1 Z M45,1 L48,6 L45,8 L45,1 Z M37.6666667,1 L40.6666667,6 L37.6666667,8 L37.6666667,1 Z M30.3333333,1 L33.3333333,6 L30.3333333,8 L30.3333333,1 Z" id="Combined-Shape" fill="#AA7B54"></path>
            <polygon id="Combined-Shape-Copy-9" fill="#BB8961" points="67 15 45 15 45 1 48.6666667 6 52.3333333 1 56 6 59.6666667 1 63.3333333 6 67 1"></polygon>
            <path d="M45,1 L48,6 L45,8 L45,1 Z M59.6666667,1 L62.6666667,6 L59.6666667,8 L59.6666667,1 Z M52.3333333,1 L55.3333333,6 L52.3333333,8 L52.3333333,1 Z" id="Combined-Shape-Copy-5" fill="#AA7B54"></path>
            <polygon id="Combined-Shape-Copy-13" fill="#BB8961" points="23 15 1 15 1 1 4.66666667 6 8.33333333 1 12 6 15.6666667 1 19.3333333 6 23 1"></polygon>
            <path d="M1,1 L4,6 L1,8 L1,1 Z M23,1 L26,6 L23,8 L23,1 Z M15.6666667,1 L18.6666667,6 L15.6666667,8 L15.6666667,1 Z M8.33333333,1 L11.3333333,6 L8.33333333,8 L8.33333333,1 Z" id="Combined-Shape-Copy-12" fill="#AA7B54"></path>
            <path d="M23,2 C22.4477153,2 22,1.55228475 22,1 C22,0.44771525 22.4477153,0 23,0 C23.5522847,0 24,0.44771525 24,1 C24,1.55228475 23.5522847,2 23,2 Z M45,2 C44.4477153,2 44,1.55228475 44,1 C44,0.44771525 44.4477153,0 45,0 C45.5522847,0 46,0.44771525 46,1 C46,1.55228475 45.5522847,2 45,2 Z M37.6666667,2 C37.1143819,2 36.6666667,1.55228475 36.6666667,1 C36.6666667,0.44771525 37.1143819,0 37.6666667,0 C38.2189514,0 38.6666667,0.44771525 38.6666667,1 C38.6666667,1.55228475 38.2189514,2 37.6666667,2 Z M30.3333333,2 C29.7810486,2 29.3333333,1.55228475 29.3333333,1 C29.3333333,0.44771525 29.7810486,0 30.3333333,0 C30.8856181,0 31.3333333,0.44771525 31.3333333,1 C31.3333333,1.55228475 30.8856181,2 30.3333333,2 Z M1,2 C0.44771525,2 1.13686838e-13,1.55228475 1.13686838e-13,1 C1.13686838e-13,0.44771525 0.44771525,0 1,0 C1.55228475,0 2,0.44771525 2,1 C2,1.55228475 1.55228475,2 1,2 Z M15.6666667,2 C15.1143819,2 14.6666667,1.55228475 14.6666667,1 C14.6666667,0.44771525 15.1143819,0 15.6666667,0 C16.2189514,0 16.6666667,0.44771525 16.6666667,1 C16.6666667,1.55228475 16.2189514,2 15.6666667,2 Z M8.33333333,2 C7.78104858,2 7.33333333,1.55228475 7.33333333,1 C7.33333333,0.44771525 7.78104858,0 8.33333333,0 C8.88561808,0 9.33333333,0.44771525 9.33333333,1 C9.33333333,1.55228475 8.88561808,2 8.33333333,2 Z M67,2 C66.4477153,2 66,1.55228475 66,1 C66,0.44771525 66.4477153,0 67,0 C67.5522847,0 68,0.44771525 68,1 C68,1.55228475 67.5522847,2 67,2 Z M59.6666667,2 C59.1143819,2 58.6666667,1.55228475 58.6666667,1 C58.6666667,0.44771525 59.1143819,0 59.6666667,0 C60.2189514,0 60.6666667,0.44771525 60.6666667,1 C60.6666667,1.55228475 60.2189514,2 59.6666667,2 Z M52.3333333,2 C51.7810486,2 51.3333333,1.55228475 51.3333333,1 C51.3333333,0.44771525 51.7810486,0 52.3333333,0 C52.8856181,0 53.3333333,0.44771525 53.3333333,1 C53.3333333,1.55228475 52.8856181,2 52.3333333,2 Z" id="Combined-Shape" fill="#D4A077"></path>
            <rect id="Rectangle" fill="#AA7B54" x="1" y="11" width="66" height="1"></rect>
        </g>
    </g>
</svg>