<?xml version="1.0" encoding="UTF-8"?>
<svg width="37px" height="11px" viewBox="0 0 37 11" version="1.1" xmlns="http://www.w3.org/2000/svg" xmlns:xlink="http://www.w3.org/1999/xlink">
    <!-- Generator: Sketch 54.1 (76490) - https://sketchapp.com -->
    <title>Combined Shape</title>
    <desc>Created with Sketch.</desc>
    <g id="Symbols" stroke="none" stroke-width="1" fill="none" fill-rule="evenodd">
        <g id="reg2-copy-4" transform="translate(-39.000000, -77.000000)" fill="#F8F8F8">
            <g id="Group-2" transform="translate(29.000000, 45.000000)">
                <path d="M25.4545455,32 C26.3091818,32 27,32.672 27,33.5 C27,34.328 26.3091818,35 25.4545455,35 L11.5454545,35 C10.6908182,35 10,34.328 10,33.5 C10,32.672 10.6908182,32 11.5454545,32 L25.4545455,32 Z M47,33.5 C47,34.328 46.3091818,35 45.4545455,35 L31.5454545,35 C30.6908182,35 30,34.328 30,33.5 C30,32.672 30.6908182,32 31.5454545,32 L45.4545455,32 C46.3091818,32 47,32.672 47,33.5 Z M13.3333333,40 C14.255,40 15,40.672 15,41.5 C15,42.328 14.255,43 13.3333333,43 L11.6666667,43 C10.745,43 10,42.328 10,41.5 C10,40.672 10.745,40 11.6666667,40 L13.3333333,40 Z M21.5,40 C22.3295,40 23,40.672 23,41.5 C23,42.328 22.3295,43 21.5,43 L18.5,43 C17.6705,43 17,42.328 17,41.5 C17,40.672 17.6705,40 18.5,40 L21.5,40 Z M30.3333333,40 C31.255,40 32,40.672 32,41.5 C32,42.328 31.255,43 30.3333333,43 L28.6666667,43 C27.745,43 27,42.328 27,41.5 C27,40.672 27.745,40 28.6666667,40 L30.3333333,40 Z M39.5,40 C40.3295,40 41,40.672 41,41.5 C41,42.328 40.3295,43 39.5,43 L36.5,43 C35.6705,43 35,42.328 35,41.5 C35,40.672 35.6705,40 36.5,40 L39.5,40 Z" id="Combined-Shape"></path>
            </g>
        </g>
    </g>
</svg>