<?xml version="1.0" encoding="UTF-8"?>
<svg width="93px" height="59px" viewBox="0 0 93 59" version="1.1" xmlns="http://www.w3.org/2000/svg" xmlns:xlink="http://www.w3.org/1999/xlink">
    <!-- Generator: Sketch 54.1 (76490) - https://sketchapp.com -->
    <title>shopping-store</title>
    <desc>Created with Sketch.</desc>
    <g id="Symbols" stroke="none" stroke-width="1" fill="none" fill-rule="evenodd">
        <g id="reg2-copy-4" transform="translate(-59.000000, -77.000000)">
            <g id="shopping-store" transform="translate(59.000000, 77.000000)">
                <path d="M4.22724008,59 L88.7727599,59 C91.107499,59 93,57.1133138 93,54.7857484 L93,4.21425161 C93,1.88668619 91.107499,0 88.7727599,0 L4.22724008,0 C1.89250102,0 0,1.88668619 0,4.21425161 L0,54.7857484 C-3.40258819e-15,57.1130751 1.89250102,59 4.22724008,59 Z" id="Path" fill="#EEEEEE"></path>
                <path d="M4.24996991,0 C1.90267698,0 0,1.91013035 0,4.26661833 L0,32 L59.5000602,32 C64.1944053,32 68,28.1794976 68,23.4667633 L68,0 L4.24996991,0.000241666289 L4.24996991,0 Z" id="Path" fill="#D8D8D8"></path>
                <g id="Group" transform="translate(10.000000, 42.000000)" fill="#C4C4C4">
                    <path d="M50.8570735,4 L40.1429265,4 C38.9595592,4 38,3.10444042 38,2 L38,2 C38,0.895559583 38.9595592,-2.27373675e-13 40.1429265,-2.27373675e-13 L50.8570735,-2.27373675e-13 C52.0404408,-2.27373675e-13 53,0.895559583 53,2 L53,2 C53,3.10444042 52.0404408,4 50.8570735,4 Z" id="Path"></path>
                    <path d="M12.8570735,4 L2.1429265,4 C0.959559181,4 5.55111512e-17,3.10444042 5.55111512e-17,2 L5.55111512e-17,2 C5.55111512e-17,0.895559583 0.959559181,-2.27373675e-13 2.1429265,-2.27373675e-13 L12.8570735,-2.27373675e-13 C14.0404408,-2.27373675e-13 15,0.895559583 15,2 L15,2 C14.9997573,3.10444042 14.0404408,4 12.8570735,4 Z" id="Path"></path>
                    <path d="M69.8570735,4 L59.1429265,4 C57.9595592,4 57,3.10444042 57,2 L57,2 C57,0.895559583 57.9595592,-2.27373675e-13 59.1429265,-2.27373675e-13 L69.8570735,-2.27373675e-13 C71.0404408,-2.27373675e-13 72,0.895559583 72,2 L72,2 C72,3.10444042 71.0406836,4 69.8570735,4 Z" id="Path"></path>
                    <path d="M31.8570735,4 L21.1429265,4 C19.9595592,4 19,3.10444042 19,2 L19,2 C19,0.895559583 19.9595592,-2.27373675e-13 21.1429265,-2.27373675e-13 L31.8570735,-2.27373675e-13 C33.0404408,-2.27373675e-13 34,0.895559583 34,2 L34,2 C34,3.10444042 33.0404408,4 31.8570735,4 Z" id="Path"></path>
                </g>
                <rect id="Rectangle" fill="#C4C4C4" x="68" y="11" width="25" height="8"></rect>
                <rect id="Rectangle" fill="#A0A0A0" x="0" y="11" width="68" height="8"></rect>
            </g>
        </g>
    </g>
</svg>