<?xml version="1.0" encoding="UTF-8"?>
<svg width="43px" height="53px" viewBox="0 0 43 53" version="1.1" xmlns="http://www.w3.org/2000/svg" xmlns:xlink="http://www.w3.org/1999/xlink">
    <!-- Generator: Sketch 54.1 (76490) - https://sketchapp.com -->
    <title>placeholder (4)</title>
    <desc>Created with Sketch.</desc>
    <g id="Symbols" stroke="none" stroke-width="1" fill="none" fill-rule="evenodd">
        <g id="reg1" transform="translate(-43.000000, -31.000000)">
            <g id="placeholder-(4)" transform="translate(43.000000, 31.000000)">
                <path d="M21.0723572,0.336150889 C9.45305892,0.336150889 0,9.36647448 0,20.4661644 C0,24.2990263 1.09335891,28.3682707 3.24957233,32.560699 C4.9593122,35.8850326 7.33908237,39.2966852 10.3228611,42.700798 C15.3881921,48.4800461 20.3731024,52.1881958 20.5827935,52.3433728 C20.7268895,52.4498468 20.8997833,52.5031348 21.0724638,52.5031348 C21.2451444,52.5031348 21.4180382,52.4498468 21.5621342,52.3433728 C21.771932,52.1882977 26.7567356,48.4800461 31.8220666,42.700798 C34.8057387,39.2965833 37.1856155,35.8849307 38.8953554,32.560699 C41.0515688,28.3682707 42.1449277,24.2990263 42.1449277,20.4661644 C42.1449277,9.36647448 32.6918688,0.336150889 21.0723572,0.336150889 Z" id="Path" fill="#D4A077"></path>
                <g id="Group" transform="translate(11.810310, 0.336151)">
                    <path d="M9.36228689,0 C8.58239946,0 7.81268033,0.0425894517 7.0547183,0.122979589 C17.5116497,1.231528 25.6735111,9.78049438 25.6735111,20.1299349 C25.6735111,23.9627818 24.5877274,28.0320103 22.4464528,32.2244222 C20.7485586,35.5487429 18.3852762,38.9603821 15.42217,42.3644816 C12.1861085,46.0823981 8.98330587,48.9429217 7.0547183,50.552049 C8.1239786,51.4441859 8.80175935,51.9516932 8.87611504,52.0070188 C9.01921268,52.1134924 9.19090866,52.1667801 9.36239281,52.1667801 C9.53387695,52.1667801 9.70557293,52.1134924 9.84867057,52.0070188 C10.0570148,51.8519442 15.0072822,48.1437072 20.037519,42.3644816 C23.0005193,38.9602802 25.3639076,35.548641 27.0618019,32.2244222 C29.2030764,28.0320103 30.2888602,23.9627818 30.2888602,20.1299349 C30.2888602,9.03028832 20.9012949,0 9.36228689,0 Z" id="Path" fill="#BB8961"></path>
                    <path d="M8.82277195,12.0287418 C3.99392344,12.0287418 0.0653525115,15.8073527 0.0653525115,20.4520129 C0.0653525115,25.0965504 3.9938597,28.8752226 8.82277195,28.8752226 C13.6516842,28.8752226 17.5801277,25.0966117 17.5801277,20.4520129 C17.5801914,15.807414 13.6516842,12.0287418 8.82277195,12.0287418 Z" id="Path" fill="#F8F8F8"></path>
                </g>
            </g>
        </g>
    </g>
</svg>