<?xml version="1.0" encoding="UTF-8"?>
<svg width="96px" height="96px" viewBox="0 0 96 96" version="1.1" xmlns="http://www.w3.org/2000/svg" xmlns:xlink="http://www.w3.org/1999/xlink">
    <!-- Generator: Sketch 54.1 (76490) - https://sketchapp.com -->
    <title>Combined Shape</title>
    <desc>Created with Sketch.</desc>
    <g id="Symbols" stroke="none" stroke-width="1" fill="none" fill-rule="evenodd">
        <g id="reg1" transform="translate(-42.000000, -42.000000)" fill="#D8D8D8">
            <path d="M129.870364,63.2925898 C134.998758,70.9228419 137.993887,80.1176471 138,89.9969442 C138,112.615737 122.330585,131.533995 101.266881,136.60657 L102.144026,133.434683 L110.383687,127.934301 L112.544459,122.045837 L118.23826,119.399542 L123.632549,109.095493 L115.292031,104.190985 L110.970488,99.2864782 L108.421572,98.987013 L103.317628,97.6149733 L98.9227341,96.921314 L95.0749101,98.0030558 L92.7185381,95.3567609 L90.3591099,94.6661574 L90.5577664,91.1398014 L87.7093375,91.2284186 L86.0895228,93.0954927 L85.1634778,89.1688312 L88.8859954,87.4025974 L92.7185381,89.1688312 L94.7753972,89.1688312 L95.5211232,86.1252865 L101.2516,79.2528648 L109.210086,75.2345302 L113.815861,75.8212376 L114.234568,73.5691367 L108.522428,67.7754011 L106.367769,63.460657 L103.219827,63.460657 L101.257712,62.3116883 L97.0370252,61.6883117 L96.1537678,66.7028266 L91.0406545,65.7188694 L90.6525103,62.5805959 L94.5767406,61.6913675 L95.8695361,56.065699 L99.763204,57.6669213 L99.6623476,60.0595875 L102.62997,61.2971734 L104.610423,61.8808251 L107.043201,60.6096257 L104.879373,58.0611154 L100.456974,53.7463713 L100.560886,51.6806723 L105.074974,52.5637892 L108.901404,55.9954163 L110.084174,59.038961 L110.967432,61.8930481 L117.05549,67.381207 L118.623349,67.8792972 L120.78412,64.4293354 L128.433924,63.7478992 L129.870364,63.2925898 Z M95.5180669,115.084798 C95.5180669,115.084798 97.7216262,122.540871 97.7246824,122.83728 C97.7246824,123.130634 95.5211232,131.766234 95.5211232,131.766234 L96.0223489,137.58136 C94.0418962,137.81971 92.0400497,138 89.9984719,138 C63.4885231,138 42,116.50573 42,90.0030558 C42,81.1688312 44.4266658,72.921314 48.589284,65.8135982 L52.0428512,65.0160428 L48.5801152,67.7601222 L51.294069,69.5385791 L56.6883576,69.5385791 L64.6957435,68.1115355 L69.7385629,76.3101604 L69.7385629,83.9709702 L76.6181911,93.2971734 L77.7856802,93.2971734 L77.7856802,90.0061115 L80.4354525,95.5492743 L88.4183885,97.3399542 L92.0217121,100.957983 L95.230779,101.917494 L92.0217121,108.603514 L95.5180669,115.084798 Z M59.8362994,57.4774637 L53.002515,59.4514897 L52.978065,59.4514897 C61.7739645,48.789916 75.0961765,42 89.9954156,42 C97.3151444,42 104.222279,43.6898396 110.429531,46.6111536 L108.711916,46.8708938 L103.999172,46.1619557 L100.667855,48.3865546 L98.3053707,50.9900688 L89.7325778,51.7937357 L86.2026042,51.2131398 L83.7820509,55.0175707 L76.7159912,55.4087089 L72.2935914,54.1344538 L68.3632485,56.2887701 L59.8362994,57.4774637 Z M92.0247684,46.7731092 L89.206902,48.5271199 L91.165961,49.7983193 L95.5180669,49.3613445 L100.074942,45.8930481 L96.9270001,44.0748663 L92.0247684,46.7731092 Z M77.5045048,47.1673033 C77.4342109,47.7387319 74.356563,49.7188694 74.3596192,49.7188694 L77.5045048,51.5584416 L84.0448887,49.8411001 L82.5014804,47.1673033 L79.6683327,48.0687548 L77.5045048,47.1673033 Z" id="Combined-Shape"></path>
        </g>
    </g>
</svg>